G04 EAGLE Gerber RS-274X export*
G75*
%MOMM*%
%FSLAX34Y34*%
%LPD*%
%INSilkscreen Bottom*%
%IPPOS*%
%AMOC8*
5,1,8,0,0,1.08239X$1,22.5*%
G01*
%ADD10C,0.203200*%
%ADD11C,0.101600*%
%ADD12C,0.152400*%
%ADD13C,0.127000*%


D10*
X541000Y432300D02*
X541000Y304300D01*
X555500Y304300D01*
X587500Y304300D02*
X602000Y304300D01*
X602000Y432300D01*
X587500Y432300D01*
X555500Y432300D02*
X541000Y432300D01*
X551500Y431800D02*
X551500Y413300D01*
X542000Y410800D01*
X591500Y413300D02*
X591500Y431800D01*
X591500Y413300D02*
X601000Y410800D01*
D11*
X584708Y348601D02*
X584708Y346004D01*
X584710Y345905D01*
X584716Y345805D01*
X584725Y345706D01*
X584738Y345608D01*
X584755Y345510D01*
X584776Y345412D01*
X584801Y345316D01*
X584829Y345221D01*
X584861Y345127D01*
X584896Y345034D01*
X584935Y344942D01*
X584978Y344852D01*
X585023Y344764D01*
X585073Y344677D01*
X585125Y344593D01*
X585181Y344510D01*
X585239Y344430D01*
X585301Y344352D01*
X585366Y344277D01*
X585434Y344204D01*
X585504Y344134D01*
X585577Y344066D01*
X585652Y344001D01*
X585730Y343939D01*
X585810Y343881D01*
X585893Y343825D01*
X585977Y343773D01*
X586064Y343723D01*
X586152Y343678D01*
X586242Y343635D01*
X586334Y343596D01*
X586427Y343561D01*
X586521Y343529D01*
X586616Y343501D01*
X586712Y343476D01*
X586810Y343455D01*
X586908Y343438D01*
X587006Y343425D01*
X587105Y343416D01*
X587205Y343410D01*
X587304Y343408D01*
X593796Y343408D01*
X593895Y343410D01*
X593995Y343416D01*
X594094Y343425D01*
X594192Y343438D01*
X594290Y343455D01*
X594388Y343476D01*
X594484Y343501D01*
X594579Y343529D01*
X594673Y343561D01*
X594766Y343596D01*
X594858Y343635D01*
X594948Y343678D01*
X595036Y343723D01*
X595123Y343773D01*
X595207Y343825D01*
X595290Y343881D01*
X595370Y343939D01*
X595448Y344001D01*
X595523Y344066D01*
X595596Y344134D01*
X595666Y344204D01*
X595734Y344277D01*
X595799Y344352D01*
X595861Y344430D01*
X595919Y344510D01*
X595975Y344593D01*
X596027Y344677D01*
X596077Y344764D01*
X596122Y344852D01*
X596165Y344942D01*
X596204Y345034D01*
X596239Y345126D01*
X596271Y345221D01*
X596299Y345316D01*
X596324Y345412D01*
X596345Y345510D01*
X596362Y345608D01*
X596375Y345706D01*
X596384Y345805D01*
X596390Y345905D01*
X596392Y346004D01*
X596392Y348601D01*
X593796Y352966D02*
X596392Y356212D01*
X584708Y356212D01*
X584708Y359457D02*
X584708Y352966D01*
D10*
X513100Y304300D02*
X513100Y432300D01*
X498600Y432300D01*
X466600Y432300D02*
X452100Y432300D01*
X452100Y304300D01*
X466600Y304300D01*
X498600Y304300D02*
X513100Y304300D01*
X502600Y304800D02*
X502600Y323300D01*
X512100Y325800D01*
X462600Y323300D02*
X462600Y304800D01*
X462600Y323300D02*
X453100Y325800D01*
D11*
X457708Y379739D02*
X457708Y382336D01*
X457708Y379739D02*
X457710Y379640D01*
X457716Y379540D01*
X457725Y379441D01*
X457738Y379343D01*
X457755Y379245D01*
X457776Y379147D01*
X457801Y379051D01*
X457829Y378956D01*
X457861Y378862D01*
X457896Y378769D01*
X457935Y378677D01*
X457978Y378587D01*
X458023Y378499D01*
X458073Y378412D01*
X458125Y378328D01*
X458181Y378245D01*
X458239Y378165D01*
X458301Y378087D01*
X458366Y378012D01*
X458434Y377939D01*
X458504Y377869D01*
X458577Y377801D01*
X458652Y377736D01*
X458730Y377674D01*
X458810Y377616D01*
X458893Y377560D01*
X458977Y377508D01*
X459064Y377458D01*
X459152Y377413D01*
X459242Y377370D01*
X459334Y377331D01*
X459427Y377296D01*
X459521Y377264D01*
X459616Y377236D01*
X459712Y377211D01*
X459810Y377190D01*
X459908Y377173D01*
X460006Y377160D01*
X460105Y377151D01*
X460205Y377145D01*
X460304Y377143D01*
X466796Y377143D01*
X466895Y377145D01*
X466995Y377151D01*
X467094Y377160D01*
X467192Y377173D01*
X467290Y377190D01*
X467388Y377211D01*
X467484Y377236D01*
X467579Y377264D01*
X467673Y377296D01*
X467766Y377331D01*
X467858Y377370D01*
X467948Y377413D01*
X468036Y377458D01*
X468123Y377508D01*
X468207Y377560D01*
X468290Y377616D01*
X468370Y377674D01*
X468448Y377736D01*
X468523Y377801D01*
X468596Y377869D01*
X468666Y377939D01*
X468734Y378012D01*
X468799Y378087D01*
X468861Y378165D01*
X468919Y378245D01*
X468975Y378328D01*
X469027Y378412D01*
X469077Y378499D01*
X469122Y378587D01*
X469165Y378677D01*
X469204Y378769D01*
X469239Y378861D01*
X469271Y378956D01*
X469299Y379051D01*
X469324Y379147D01*
X469345Y379245D01*
X469362Y379343D01*
X469375Y379441D01*
X469384Y379540D01*
X469390Y379640D01*
X469392Y379739D01*
X469392Y382336D01*
X469392Y390271D02*
X469390Y390378D01*
X469384Y390484D01*
X469374Y390590D01*
X469361Y390696D01*
X469343Y390802D01*
X469322Y390906D01*
X469297Y391010D01*
X469268Y391113D01*
X469236Y391214D01*
X469199Y391314D01*
X469159Y391413D01*
X469116Y391511D01*
X469069Y391607D01*
X469018Y391701D01*
X468964Y391793D01*
X468907Y391883D01*
X468847Y391971D01*
X468783Y392056D01*
X468716Y392139D01*
X468646Y392220D01*
X468574Y392298D01*
X468498Y392374D01*
X468420Y392446D01*
X468339Y392516D01*
X468256Y392583D01*
X468171Y392647D01*
X468083Y392707D01*
X467993Y392764D01*
X467901Y392818D01*
X467807Y392869D01*
X467711Y392916D01*
X467613Y392959D01*
X467514Y392999D01*
X467414Y393036D01*
X467313Y393068D01*
X467210Y393097D01*
X467106Y393122D01*
X467002Y393143D01*
X466896Y393161D01*
X466790Y393174D01*
X466684Y393184D01*
X466578Y393190D01*
X466471Y393192D01*
X469392Y390271D02*
X469390Y390150D01*
X469384Y390029D01*
X469374Y389909D01*
X469361Y389788D01*
X469343Y389669D01*
X469322Y389549D01*
X469297Y389431D01*
X469268Y389314D01*
X469235Y389197D01*
X469199Y389082D01*
X469158Y388968D01*
X469115Y388855D01*
X469067Y388743D01*
X469016Y388634D01*
X468961Y388526D01*
X468903Y388419D01*
X468842Y388315D01*
X468777Y388213D01*
X468709Y388113D01*
X468638Y388015D01*
X468564Y387919D01*
X468487Y387826D01*
X468406Y387736D01*
X468323Y387648D01*
X468237Y387563D01*
X468148Y387480D01*
X468057Y387401D01*
X467963Y387324D01*
X467867Y387251D01*
X467769Y387181D01*
X467668Y387114D01*
X467565Y387050D01*
X467460Y386990D01*
X467353Y386933D01*
X467245Y386879D01*
X467135Y386829D01*
X467023Y386783D01*
X466910Y386740D01*
X466795Y386701D01*
X464199Y392219D02*
X464276Y392298D01*
X464357Y392374D01*
X464440Y392447D01*
X464525Y392517D01*
X464613Y392584D01*
X464703Y392648D01*
X464795Y392708D01*
X464890Y392765D01*
X464986Y392819D01*
X465084Y392870D01*
X465184Y392917D01*
X465286Y392961D01*
X465389Y393001D01*
X465493Y393037D01*
X465599Y393069D01*
X465705Y393098D01*
X465813Y393123D01*
X465921Y393145D01*
X466031Y393162D01*
X466140Y393176D01*
X466250Y393185D01*
X466361Y393191D01*
X466471Y393193D01*
X464199Y392218D02*
X457708Y386701D01*
X457708Y393192D01*
X506664Y368808D02*
X509261Y368808D01*
X509360Y368810D01*
X509460Y368816D01*
X509559Y368825D01*
X509657Y368838D01*
X509755Y368855D01*
X509853Y368876D01*
X509949Y368901D01*
X510044Y368929D01*
X510138Y368961D01*
X510231Y368996D01*
X510323Y369035D01*
X510413Y369078D01*
X510501Y369123D01*
X510588Y369173D01*
X510672Y369225D01*
X510755Y369281D01*
X510835Y369339D01*
X510913Y369401D01*
X510988Y369466D01*
X511061Y369534D01*
X511131Y369604D01*
X511199Y369677D01*
X511264Y369752D01*
X511326Y369830D01*
X511384Y369910D01*
X511440Y369993D01*
X511492Y370077D01*
X511542Y370164D01*
X511587Y370252D01*
X511630Y370342D01*
X511669Y370434D01*
X511704Y370527D01*
X511736Y370621D01*
X511764Y370716D01*
X511789Y370812D01*
X511810Y370910D01*
X511827Y371008D01*
X511840Y371106D01*
X511849Y371205D01*
X511855Y371305D01*
X511857Y371404D01*
X511857Y377896D01*
X511855Y377995D01*
X511849Y378095D01*
X511840Y378194D01*
X511827Y378292D01*
X511810Y378390D01*
X511789Y378488D01*
X511764Y378584D01*
X511736Y378679D01*
X511704Y378773D01*
X511669Y378866D01*
X511630Y378958D01*
X511587Y379048D01*
X511542Y379136D01*
X511492Y379223D01*
X511440Y379307D01*
X511384Y379390D01*
X511326Y379470D01*
X511264Y379548D01*
X511199Y379623D01*
X511131Y379696D01*
X511061Y379766D01*
X510988Y379834D01*
X510913Y379899D01*
X510835Y379961D01*
X510755Y380019D01*
X510672Y380075D01*
X510588Y380127D01*
X510501Y380177D01*
X510413Y380222D01*
X510323Y380265D01*
X510231Y380304D01*
X510138Y380339D01*
X510044Y380371D01*
X509949Y380399D01*
X509853Y380424D01*
X509755Y380445D01*
X509657Y380462D01*
X509559Y380475D01*
X509460Y380484D01*
X509360Y380490D01*
X509261Y380492D01*
X506664Y380492D01*
X502299Y368808D02*
X498404Y368808D01*
X498305Y368810D01*
X498205Y368816D01*
X498106Y368825D01*
X498008Y368838D01*
X497910Y368855D01*
X497812Y368876D01*
X497716Y368901D01*
X497621Y368929D01*
X497527Y368961D01*
X497434Y368996D01*
X497342Y369035D01*
X497252Y369078D01*
X497164Y369123D01*
X497077Y369173D01*
X496993Y369225D01*
X496910Y369281D01*
X496830Y369339D01*
X496752Y369401D01*
X496677Y369466D01*
X496604Y369534D01*
X496534Y369604D01*
X496466Y369677D01*
X496401Y369752D01*
X496339Y369830D01*
X496281Y369910D01*
X496225Y369993D01*
X496173Y370077D01*
X496123Y370164D01*
X496078Y370252D01*
X496035Y370342D01*
X495996Y370434D01*
X495961Y370527D01*
X495929Y370621D01*
X495901Y370716D01*
X495876Y370812D01*
X495855Y370910D01*
X495838Y371008D01*
X495825Y371106D01*
X495816Y371205D01*
X495810Y371305D01*
X495808Y371404D01*
X495808Y372703D01*
X495810Y372802D01*
X495816Y372902D01*
X495825Y373001D01*
X495838Y373099D01*
X495855Y373197D01*
X495876Y373295D01*
X495901Y373391D01*
X495929Y373486D01*
X495961Y373580D01*
X495996Y373673D01*
X496035Y373765D01*
X496078Y373855D01*
X496123Y373943D01*
X496173Y374030D01*
X496225Y374114D01*
X496281Y374197D01*
X496339Y374277D01*
X496401Y374355D01*
X496466Y374430D01*
X496534Y374503D01*
X496604Y374573D01*
X496677Y374641D01*
X496752Y374706D01*
X496830Y374768D01*
X496910Y374826D01*
X496993Y374882D01*
X497077Y374934D01*
X497164Y374984D01*
X497252Y375029D01*
X497342Y375072D01*
X497434Y375111D01*
X497527Y375146D01*
X497621Y375178D01*
X497716Y375206D01*
X497812Y375231D01*
X497910Y375252D01*
X498008Y375269D01*
X498106Y375282D01*
X498205Y375291D01*
X498305Y375297D01*
X498404Y375299D01*
X502299Y375299D01*
X502299Y380492D01*
X495808Y380492D01*
X502299Y394208D02*
X504896Y394208D01*
X504995Y394210D01*
X505095Y394216D01*
X505194Y394225D01*
X505292Y394238D01*
X505390Y394255D01*
X505488Y394276D01*
X505584Y394301D01*
X505679Y394329D01*
X505773Y394361D01*
X505866Y394396D01*
X505958Y394435D01*
X506048Y394478D01*
X506136Y394523D01*
X506223Y394573D01*
X506307Y394625D01*
X506390Y394681D01*
X506470Y394739D01*
X506548Y394801D01*
X506623Y394866D01*
X506696Y394934D01*
X506766Y395004D01*
X506834Y395077D01*
X506899Y395152D01*
X506961Y395230D01*
X507019Y395310D01*
X507075Y395393D01*
X507127Y395477D01*
X507177Y395564D01*
X507222Y395652D01*
X507265Y395742D01*
X507304Y395834D01*
X507339Y395927D01*
X507371Y396021D01*
X507399Y396116D01*
X507424Y396212D01*
X507445Y396310D01*
X507462Y396408D01*
X507475Y396506D01*
X507484Y396605D01*
X507490Y396705D01*
X507492Y396804D01*
X507492Y403296D01*
X507490Y403395D01*
X507484Y403495D01*
X507475Y403594D01*
X507462Y403692D01*
X507445Y403790D01*
X507424Y403888D01*
X507399Y403984D01*
X507371Y404079D01*
X507339Y404173D01*
X507304Y404266D01*
X507265Y404358D01*
X507222Y404448D01*
X507177Y404536D01*
X507127Y404623D01*
X507075Y404707D01*
X507019Y404790D01*
X506961Y404870D01*
X506899Y404948D01*
X506834Y405023D01*
X506766Y405096D01*
X506696Y405166D01*
X506623Y405234D01*
X506548Y405299D01*
X506470Y405361D01*
X506390Y405419D01*
X506307Y405475D01*
X506223Y405527D01*
X506136Y405577D01*
X506048Y405622D01*
X505958Y405665D01*
X505866Y405704D01*
X505773Y405739D01*
X505679Y405771D01*
X505584Y405799D01*
X505488Y405824D01*
X505390Y405845D01*
X505292Y405862D01*
X505194Y405875D01*
X505095Y405884D01*
X504995Y405890D01*
X504896Y405892D01*
X502299Y405892D01*
X497934Y405892D02*
X497934Y404594D01*
X497934Y405892D02*
X491443Y405892D01*
X494688Y394208D01*
D12*
X266700Y345440D02*
X264160Y342900D01*
X266700Y340360D01*
X243840Y342900D02*
X241300Y345440D01*
X243840Y342900D02*
X241300Y340360D01*
X241300Y320040D01*
X243840Y317500D01*
X241300Y365760D02*
X243840Y368300D01*
X241300Y365760D02*
X241300Y345440D01*
X243840Y368300D02*
X264160Y368300D01*
X266700Y365760D01*
X266700Y345440D01*
X266700Y340360D02*
X266700Y320040D01*
X264160Y317500D01*
X243840Y317500D01*
D13*
X273685Y321945D02*
X282575Y321945D01*
X273685Y321945D02*
X273585Y321943D01*
X273486Y321937D01*
X273386Y321927D01*
X273288Y321914D01*
X273189Y321896D01*
X273092Y321875D01*
X272996Y321850D01*
X272900Y321821D01*
X272806Y321788D01*
X272713Y321752D01*
X272622Y321712D01*
X272532Y321668D01*
X272444Y321621D01*
X272358Y321571D01*
X272274Y321517D01*
X272192Y321460D01*
X272113Y321400D01*
X272035Y321336D01*
X271961Y321270D01*
X271889Y321201D01*
X271820Y321129D01*
X271754Y321055D01*
X271690Y320977D01*
X271630Y320898D01*
X271573Y320816D01*
X271519Y320732D01*
X271469Y320646D01*
X271422Y320558D01*
X271378Y320468D01*
X271338Y320377D01*
X271302Y320284D01*
X271269Y320190D01*
X271240Y320094D01*
X271215Y319998D01*
X271194Y319901D01*
X271176Y319802D01*
X271163Y319704D01*
X271153Y319604D01*
X271147Y319505D01*
X271145Y319405D01*
X271145Y318135D01*
X271145Y327925D02*
X282575Y327925D01*
X282575Y331100D01*
X282573Y331211D01*
X282567Y331321D01*
X282558Y331432D01*
X282544Y331542D01*
X282527Y331651D01*
X282506Y331760D01*
X282481Y331868D01*
X282452Y331975D01*
X282420Y332081D01*
X282384Y332186D01*
X282344Y332289D01*
X282301Y332391D01*
X282254Y332492D01*
X282203Y332591D01*
X282150Y332688D01*
X282093Y332782D01*
X282032Y332875D01*
X281969Y332966D01*
X281902Y333055D01*
X281832Y333141D01*
X281759Y333224D01*
X281684Y333306D01*
X281606Y333384D01*
X281524Y333459D01*
X281441Y333532D01*
X281355Y333602D01*
X281266Y333669D01*
X281175Y333732D01*
X281082Y333793D01*
X280988Y333850D01*
X280891Y333903D01*
X280792Y333954D01*
X280691Y334001D01*
X280589Y334044D01*
X280486Y334084D01*
X280381Y334120D01*
X280275Y334152D01*
X280168Y334181D01*
X280060Y334206D01*
X279951Y334227D01*
X279842Y334244D01*
X279732Y334258D01*
X279621Y334267D01*
X279511Y334273D01*
X279400Y334275D01*
X279289Y334273D01*
X279179Y334267D01*
X279068Y334258D01*
X278958Y334244D01*
X278849Y334227D01*
X278740Y334206D01*
X278632Y334181D01*
X278525Y334152D01*
X278419Y334120D01*
X278314Y334084D01*
X278211Y334044D01*
X278109Y334001D01*
X278008Y333954D01*
X277909Y333903D01*
X277813Y333850D01*
X277718Y333793D01*
X277625Y333732D01*
X277534Y333669D01*
X277445Y333602D01*
X277359Y333532D01*
X277276Y333459D01*
X277194Y333384D01*
X277116Y333306D01*
X277041Y333224D01*
X276968Y333141D01*
X276898Y333055D01*
X276831Y332966D01*
X276768Y332875D01*
X276707Y332782D01*
X276650Y332688D01*
X276597Y332591D01*
X276546Y332492D01*
X276499Y332391D01*
X276456Y332289D01*
X276416Y332186D01*
X276380Y332081D01*
X276348Y331975D01*
X276319Y331868D01*
X276294Y331760D01*
X276273Y331651D01*
X276256Y331542D01*
X276242Y331432D01*
X276233Y331321D01*
X276227Y331211D01*
X276225Y331100D01*
X276225Y327925D01*
X280035Y338784D02*
X282575Y341959D01*
X271145Y341959D01*
X271145Y338784D02*
X271145Y345134D01*
D12*
X314960Y355600D02*
X317500Y353060D01*
X320040Y355600D01*
X317500Y332740D02*
X314960Y330200D01*
X317500Y332740D02*
X320040Y330200D01*
X340360Y330200D01*
X342900Y332740D01*
X294640Y330200D02*
X292100Y332740D01*
X294640Y330200D02*
X314960Y330200D01*
X292100Y332740D02*
X292100Y353060D01*
X294640Y355600D01*
X314960Y355600D01*
X320040Y355600D02*
X340360Y355600D01*
X342900Y353060D01*
X342900Y332740D01*
D13*
X338455Y362585D02*
X338455Y371475D01*
X338455Y362585D02*
X338457Y362485D01*
X338463Y362386D01*
X338473Y362286D01*
X338486Y362188D01*
X338504Y362089D01*
X338525Y361992D01*
X338550Y361896D01*
X338579Y361800D01*
X338612Y361706D01*
X338648Y361613D01*
X338688Y361522D01*
X338732Y361432D01*
X338779Y361344D01*
X338829Y361258D01*
X338883Y361174D01*
X338940Y361092D01*
X339000Y361013D01*
X339064Y360935D01*
X339130Y360861D01*
X339199Y360789D01*
X339271Y360720D01*
X339345Y360654D01*
X339423Y360590D01*
X339502Y360530D01*
X339584Y360473D01*
X339668Y360419D01*
X339754Y360369D01*
X339842Y360322D01*
X339932Y360278D01*
X340023Y360238D01*
X340116Y360202D01*
X340210Y360169D01*
X340306Y360140D01*
X340402Y360115D01*
X340499Y360094D01*
X340598Y360076D01*
X340696Y360063D01*
X340796Y360053D01*
X340895Y360047D01*
X340995Y360045D01*
X342265Y360045D01*
X332475Y360045D02*
X332475Y371475D01*
X329300Y371475D01*
X329189Y371473D01*
X329079Y371467D01*
X328968Y371458D01*
X328858Y371444D01*
X328749Y371427D01*
X328640Y371406D01*
X328532Y371381D01*
X328425Y371352D01*
X328319Y371320D01*
X328214Y371284D01*
X328111Y371244D01*
X328009Y371201D01*
X327908Y371154D01*
X327809Y371103D01*
X327713Y371050D01*
X327618Y370993D01*
X327525Y370932D01*
X327434Y370869D01*
X327345Y370802D01*
X327259Y370732D01*
X327176Y370659D01*
X327094Y370584D01*
X327016Y370506D01*
X326941Y370424D01*
X326868Y370341D01*
X326798Y370255D01*
X326731Y370166D01*
X326668Y370075D01*
X326607Y369982D01*
X326550Y369888D01*
X326497Y369791D01*
X326446Y369692D01*
X326399Y369591D01*
X326356Y369489D01*
X326316Y369386D01*
X326280Y369281D01*
X326248Y369175D01*
X326219Y369068D01*
X326194Y368960D01*
X326173Y368851D01*
X326156Y368742D01*
X326142Y368632D01*
X326133Y368521D01*
X326127Y368411D01*
X326125Y368300D01*
X326127Y368189D01*
X326133Y368079D01*
X326142Y367968D01*
X326156Y367858D01*
X326173Y367749D01*
X326194Y367640D01*
X326219Y367532D01*
X326248Y367425D01*
X326280Y367319D01*
X326316Y367214D01*
X326356Y367111D01*
X326399Y367009D01*
X326446Y366908D01*
X326497Y366809D01*
X326550Y366713D01*
X326607Y366618D01*
X326668Y366525D01*
X326731Y366434D01*
X326798Y366345D01*
X326868Y366259D01*
X326941Y366176D01*
X327016Y366094D01*
X327094Y366016D01*
X327176Y365941D01*
X327259Y365868D01*
X327345Y365798D01*
X327434Y365731D01*
X327525Y365668D01*
X327618Y365607D01*
X327713Y365550D01*
X327809Y365497D01*
X327908Y365446D01*
X328009Y365399D01*
X328111Y365356D01*
X328214Y365316D01*
X328319Y365280D01*
X328425Y365248D01*
X328532Y365219D01*
X328640Y365194D01*
X328749Y365173D01*
X328858Y365156D01*
X328968Y365142D01*
X329079Y365133D01*
X329189Y365127D01*
X329300Y365125D01*
X332475Y365125D01*
X318124Y371476D02*
X318020Y371474D01*
X317915Y371468D01*
X317811Y371459D01*
X317708Y371446D01*
X317605Y371428D01*
X317503Y371408D01*
X317401Y371383D01*
X317301Y371355D01*
X317201Y371323D01*
X317103Y371287D01*
X317006Y371248D01*
X316911Y371206D01*
X316817Y371160D01*
X316725Y371110D01*
X316635Y371058D01*
X316547Y371002D01*
X316461Y370942D01*
X316377Y370880D01*
X316296Y370815D01*
X316217Y370747D01*
X316140Y370675D01*
X316067Y370602D01*
X315995Y370525D01*
X315927Y370446D01*
X315862Y370365D01*
X315800Y370281D01*
X315740Y370195D01*
X315684Y370107D01*
X315632Y370017D01*
X315582Y369925D01*
X315536Y369831D01*
X315494Y369736D01*
X315455Y369639D01*
X315419Y369541D01*
X315387Y369441D01*
X315359Y369341D01*
X315334Y369239D01*
X315314Y369137D01*
X315296Y369034D01*
X315283Y368931D01*
X315274Y368827D01*
X315268Y368722D01*
X315266Y368618D01*
X318124Y371475D02*
X318242Y371473D01*
X318361Y371467D01*
X318479Y371458D01*
X318596Y371445D01*
X318713Y371427D01*
X318830Y371407D01*
X318946Y371382D01*
X319061Y371354D01*
X319174Y371321D01*
X319287Y371286D01*
X319399Y371246D01*
X319509Y371204D01*
X319618Y371157D01*
X319726Y371107D01*
X319831Y371054D01*
X319935Y370997D01*
X320037Y370937D01*
X320137Y370874D01*
X320235Y370807D01*
X320331Y370738D01*
X320424Y370665D01*
X320515Y370589D01*
X320604Y370511D01*
X320690Y370429D01*
X320773Y370345D01*
X320854Y370259D01*
X320931Y370169D01*
X321006Y370078D01*
X321078Y369984D01*
X321147Y369887D01*
X321212Y369789D01*
X321275Y369688D01*
X321334Y369585D01*
X321390Y369481D01*
X321442Y369375D01*
X321491Y369267D01*
X321536Y369158D01*
X321578Y369047D01*
X321616Y368935D01*
X316218Y366396D02*
X316142Y366471D01*
X316067Y366550D01*
X315996Y366631D01*
X315927Y366715D01*
X315862Y366801D01*
X315800Y366889D01*
X315740Y366979D01*
X315684Y367071D01*
X315631Y367166D01*
X315582Y367262D01*
X315536Y367360D01*
X315493Y367459D01*
X315454Y367560D01*
X315419Y367662D01*
X315387Y367765D01*
X315359Y367869D01*
X315334Y367974D01*
X315313Y368081D01*
X315296Y368187D01*
X315283Y368294D01*
X315274Y368402D01*
X315268Y368510D01*
X315266Y368618D01*
X316219Y366395D02*
X321616Y360045D01*
X315266Y360045D01*
D11*
X278705Y470408D02*
X278705Y482092D01*
X275460Y482092D01*
X275347Y482090D01*
X275234Y482084D01*
X275121Y482074D01*
X275008Y482060D01*
X274896Y482043D01*
X274785Y482021D01*
X274675Y481996D01*
X274565Y481966D01*
X274457Y481933D01*
X274350Y481896D01*
X274244Y481856D01*
X274140Y481811D01*
X274037Y481763D01*
X273936Y481712D01*
X273837Y481657D01*
X273740Y481599D01*
X273645Y481537D01*
X273552Y481472D01*
X273462Y481404D01*
X273374Y481333D01*
X273288Y481258D01*
X273205Y481181D01*
X273125Y481101D01*
X273048Y481018D01*
X272973Y480932D01*
X272902Y480844D01*
X272834Y480754D01*
X272769Y480661D01*
X272707Y480566D01*
X272649Y480469D01*
X272594Y480370D01*
X272543Y480269D01*
X272495Y480166D01*
X272450Y480062D01*
X272410Y479956D01*
X272373Y479849D01*
X272340Y479741D01*
X272310Y479631D01*
X272285Y479521D01*
X272263Y479410D01*
X272246Y479298D01*
X272232Y479185D01*
X272222Y479072D01*
X272216Y478959D01*
X272214Y478846D01*
X272216Y478733D01*
X272222Y478620D01*
X272232Y478507D01*
X272246Y478394D01*
X272263Y478282D01*
X272285Y478171D01*
X272310Y478061D01*
X272340Y477951D01*
X272373Y477843D01*
X272410Y477736D01*
X272450Y477630D01*
X272495Y477526D01*
X272543Y477423D01*
X272594Y477322D01*
X272649Y477223D01*
X272707Y477126D01*
X272769Y477031D01*
X272834Y476938D01*
X272902Y476848D01*
X272973Y476760D01*
X273048Y476674D01*
X273125Y476591D01*
X273205Y476511D01*
X273288Y476434D01*
X273374Y476359D01*
X273462Y476288D01*
X273552Y476220D01*
X273645Y476155D01*
X273740Y476093D01*
X273837Y476035D01*
X273936Y475980D01*
X274037Y475929D01*
X274140Y475881D01*
X274244Y475836D01*
X274350Y475796D01*
X274457Y475759D01*
X274565Y475726D01*
X274675Y475696D01*
X274785Y475671D01*
X274896Y475649D01*
X275008Y475632D01*
X275121Y475618D01*
X275234Y475608D01*
X275347Y475602D01*
X275460Y475600D01*
X275460Y475601D02*
X278705Y475601D01*
X274811Y475601D02*
X272214Y470408D01*
X267349Y479496D02*
X264104Y482092D01*
X264104Y470408D01*
X267349Y470408D02*
X260858Y470408D01*
X215392Y394395D02*
X203708Y394395D01*
X215392Y394395D02*
X215392Y397640D01*
X215390Y397753D01*
X215384Y397866D01*
X215374Y397979D01*
X215360Y398092D01*
X215343Y398204D01*
X215321Y398315D01*
X215296Y398425D01*
X215266Y398535D01*
X215233Y398643D01*
X215196Y398750D01*
X215156Y398856D01*
X215111Y398960D01*
X215063Y399063D01*
X215012Y399164D01*
X214957Y399263D01*
X214899Y399360D01*
X214837Y399455D01*
X214772Y399548D01*
X214704Y399638D01*
X214633Y399726D01*
X214558Y399812D01*
X214481Y399895D01*
X214401Y399975D01*
X214318Y400052D01*
X214232Y400127D01*
X214144Y400198D01*
X214054Y400266D01*
X213961Y400331D01*
X213866Y400393D01*
X213769Y400451D01*
X213670Y400506D01*
X213569Y400557D01*
X213466Y400605D01*
X213362Y400650D01*
X213256Y400690D01*
X213149Y400727D01*
X213041Y400760D01*
X212931Y400790D01*
X212821Y400815D01*
X212710Y400837D01*
X212598Y400854D01*
X212485Y400868D01*
X212372Y400878D01*
X212259Y400884D01*
X212146Y400886D01*
X212033Y400884D01*
X211920Y400878D01*
X211807Y400868D01*
X211694Y400854D01*
X211582Y400837D01*
X211471Y400815D01*
X211361Y400790D01*
X211251Y400760D01*
X211143Y400727D01*
X211036Y400690D01*
X210930Y400650D01*
X210826Y400605D01*
X210723Y400557D01*
X210622Y400506D01*
X210523Y400451D01*
X210426Y400393D01*
X210331Y400331D01*
X210238Y400266D01*
X210148Y400198D01*
X210060Y400127D01*
X209974Y400052D01*
X209891Y399975D01*
X209811Y399895D01*
X209734Y399812D01*
X209659Y399726D01*
X209588Y399638D01*
X209520Y399548D01*
X209455Y399455D01*
X209393Y399360D01*
X209335Y399263D01*
X209280Y399164D01*
X209229Y399063D01*
X209181Y398960D01*
X209136Y398856D01*
X209096Y398750D01*
X209059Y398643D01*
X209026Y398535D01*
X208996Y398425D01*
X208971Y398315D01*
X208949Y398204D01*
X208932Y398092D01*
X208918Y397979D01*
X208908Y397866D01*
X208902Y397753D01*
X208900Y397640D01*
X208901Y397640D02*
X208901Y394395D01*
X208901Y398289D02*
X203708Y400886D01*
X203708Y405751D02*
X203708Y408996D01*
X203710Y409109D01*
X203716Y409222D01*
X203726Y409335D01*
X203740Y409448D01*
X203757Y409560D01*
X203779Y409671D01*
X203804Y409781D01*
X203834Y409891D01*
X203867Y409999D01*
X203904Y410106D01*
X203944Y410212D01*
X203989Y410316D01*
X204037Y410419D01*
X204088Y410520D01*
X204143Y410619D01*
X204201Y410716D01*
X204263Y410811D01*
X204328Y410904D01*
X204396Y410994D01*
X204467Y411082D01*
X204542Y411168D01*
X204619Y411251D01*
X204699Y411331D01*
X204782Y411408D01*
X204868Y411483D01*
X204956Y411554D01*
X205046Y411622D01*
X205139Y411687D01*
X205234Y411749D01*
X205331Y411807D01*
X205430Y411862D01*
X205531Y411913D01*
X205634Y411961D01*
X205738Y412006D01*
X205844Y412046D01*
X205951Y412083D01*
X206059Y412116D01*
X206169Y412146D01*
X206279Y412171D01*
X206390Y412193D01*
X206502Y412210D01*
X206615Y412224D01*
X206728Y412234D01*
X206841Y412240D01*
X206954Y412242D01*
X207067Y412240D01*
X207180Y412234D01*
X207293Y412224D01*
X207406Y412210D01*
X207518Y412193D01*
X207629Y412171D01*
X207739Y412146D01*
X207849Y412116D01*
X207957Y412083D01*
X208064Y412046D01*
X208170Y412006D01*
X208274Y411961D01*
X208377Y411913D01*
X208478Y411862D01*
X208577Y411807D01*
X208674Y411749D01*
X208769Y411687D01*
X208862Y411622D01*
X208952Y411554D01*
X209040Y411483D01*
X209126Y411408D01*
X209209Y411331D01*
X209289Y411251D01*
X209366Y411168D01*
X209441Y411082D01*
X209512Y410994D01*
X209580Y410904D01*
X209645Y410811D01*
X209707Y410716D01*
X209765Y410619D01*
X209820Y410520D01*
X209871Y410419D01*
X209919Y410316D01*
X209964Y410212D01*
X210004Y410106D01*
X210041Y409999D01*
X210074Y409891D01*
X210104Y409781D01*
X210129Y409671D01*
X210151Y409560D01*
X210168Y409448D01*
X210182Y409335D01*
X210192Y409222D01*
X210198Y409109D01*
X210200Y408996D01*
X215392Y409646D02*
X215392Y405751D01*
X215392Y409646D02*
X215390Y409747D01*
X215384Y409847D01*
X215374Y409947D01*
X215361Y410047D01*
X215343Y410146D01*
X215322Y410245D01*
X215297Y410342D01*
X215268Y410439D01*
X215235Y410534D01*
X215199Y410628D01*
X215159Y410720D01*
X215116Y410811D01*
X215069Y410900D01*
X215019Y410987D01*
X214965Y411073D01*
X214908Y411156D01*
X214848Y411236D01*
X214785Y411315D01*
X214718Y411391D01*
X214649Y411464D01*
X214577Y411534D01*
X214503Y411602D01*
X214426Y411667D01*
X214346Y411728D01*
X214264Y411787D01*
X214180Y411842D01*
X214094Y411894D01*
X214006Y411943D01*
X213916Y411988D01*
X213824Y412030D01*
X213731Y412068D01*
X213636Y412102D01*
X213541Y412133D01*
X213444Y412160D01*
X213346Y412183D01*
X213247Y412203D01*
X213147Y412218D01*
X213047Y412230D01*
X212947Y412238D01*
X212846Y412242D01*
X212746Y412242D01*
X212645Y412238D01*
X212545Y412230D01*
X212445Y412218D01*
X212345Y412203D01*
X212246Y412183D01*
X212148Y412160D01*
X212051Y412133D01*
X211956Y412102D01*
X211861Y412068D01*
X211768Y412030D01*
X211676Y411988D01*
X211586Y411943D01*
X211498Y411894D01*
X211412Y411842D01*
X211328Y411787D01*
X211246Y411728D01*
X211166Y411667D01*
X211089Y411602D01*
X211015Y411534D01*
X210943Y411464D01*
X210874Y411391D01*
X210807Y411315D01*
X210744Y411236D01*
X210684Y411156D01*
X210627Y411073D01*
X210573Y410987D01*
X210523Y410900D01*
X210476Y410811D01*
X210433Y410720D01*
X210393Y410628D01*
X210357Y410534D01*
X210324Y410439D01*
X210295Y410342D01*
X210270Y410245D01*
X210249Y410146D01*
X210231Y410047D01*
X210218Y409947D01*
X210208Y409847D01*
X210202Y409747D01*
X210200Y409646D01*
X210199Y409646D02*
X210199Y407049D01*
X330708Y400558D02*
X342392Y400558D01*
X342392Y403804D01*
X342390Y403917D01*
X342384Y404030D01*
X342374Y404143D01*
X342360Y404256D01*
X342343Y404368D01*
X342321Y404479D01*
X342296Y404589D01*
X342266Y404699D01*
X342233Y404807D01*
X342196Y404914D01*
X342156Y405020D01*
X342111Y405124D01*
X342063Y405227D01*
X342012Y405328D01*
X341957Y405427D01*
X341899Y405524D01*
X341837Y405619D01*
X341772Y405712D01*
X341704Y405802D01*
X341633Y405890D01*
X341558Y405976D01*
X341481Y406059D01*
X341401Y406139D01*
X341318Y406216D01*
X341232Y406291D01*
X341144Y406362D01*
X341054Y406430D01*
X340961Y406495D01*
X340866Y406557D01*
X340769Y406615D01*
X340670Y406670D01*
X340569Y406721D01*
X340466Y406769D01*
X340362Y406814D01*
X340256Y406854D01*
X340149Y406891D01*
X340041Y406924D01*
X339931Y406954D01*
X339821Y406979D01*
X339710Y407001D01*
X339598Y407018D01*
X339485Y407032D01*
X339372Y407042D01*
X339259Y407048D01*
X339146Y407050D01*
X339033Y407048D01*
X338920Y407042D01*
X338807Y407032D01*
X338694Y407018D01*
X338582Y407001D01*
X338471Y406979D01*
X338361Y406954D01*
X338251Y406924D01*
X338143Y406891D01*
X338036Y406854D01*
X337930Y406814D01*
X337826Y406769D01*
X337723Y406721D01*
X337622Y406670D01*
X337523Y406615D01*
X337426Y406557D01*
X337331Y406495D01*
X337238Y406430D01*
X337148Y406362D01*
X337060Y406291D01*
X336974Y406216D01*
X336891Y406139D01*
X336811Y406059D01*
X336734Y405976D01*
X336659Y405890D01*
X336588Y405802D01*
X336520Y405712D01*
X336455Y405619D01*
X336393Y405524D01*
X336335Y405427D01*
X336280Y405328D01*
X336229Y405227D01*
X336181Y405124D01*
X336136Y405020D01*
X336096Y404914D01*
X336059Y404807D01*
X336026Y404699D01*
X335996Y404589D01*
X335971Y404479D01*
X335949Y404368D01*
X335932Y404256D01*
X335918Y404143D01*
X335908Y404030D01*
X335902Y403917D01*
X335900Y403804D01*
X335901Y403804D02*
X335901Y400558D01*
X335901Y404453D02*
X330708Y407049D01*
X333304Y411914D02*
X342392Y414511D01*
X333304Y411914D02*
X333304Y418405D01*
X335901Y416458D02*
X330708Y416458D01*
M02*
