G04 EAGLE Gerber RS-274X export*
G75*
%MOMM*%
%FSLAX34Y34*%
%LPD*%
%INSolderpaste Top*%
%IPPOS*%
%AMOC8*
5,1,8,0,0,1.08239X$1,22.5*%
G01*
%ADD10R,1.300000X1.500000*%
%ADD11R,1.500000X1.300000*%
%ADD12R,0.700000X0.900000*%
%ADD13R,1.650000X0.700000*%
%ADD14R,1.650000X0.600000*%
%ADD15R,2.000000X5.500000*%
%ADD16R,5.500000X2.000000*%
%ADD17R,1.000000X0.400000*%
%ADD18R,0.400000X1.000000*%


D10*
X485800Y469900D03*
X504800Y469900D03*
X555600Y469900D03*
X536600Y469900D03*
X612800Y228600D03*
X631800Y228600D03*
X631800Y279400D03*
X612800Y279400D03*
D11*
X660400Y415900D03*
X660400Y396900D03*
X596900Y466700D03*
X596900Y447700D03*
X508000Y409600D03*
X508000Y428600D03*
X508000Y333400D03*
X508000Y352400D03*
D12*
X273200Y558800D03*
X260200Y558800D03*
D13*
X364250Y225400D03*
D14*
X364250Y215900D03*
D13*
X364250Y206400D03*
X397750Y206400D03*
D14*
X397750Y215900D03*
D13*
X397750Y225400D03*
D15*
X431800Y415800D03*
X431800Y320800D03*
D16*
X460500Y520700D03*
X555500Y520700D03*
D10*
X308000Y215900D03*
X327000Y215900D03*
X193700Y482600D03*
X212700Y482600D03*
X244500Y279400D03*
X263500Y279400D03*
X193700Y342900D03*
X212700Y342900D03*
X549300Y241300D03*
X568300Y241300D03*
X308000Y254000D03*
X327000Y254000D03*
X308000Y177800D03*
X327000Y177800D03*
D17*
X528400Y420500D03*
X528400Y412500D03*
X528400Y404500D03*
X528400Y396500D03*
X528400Y388500D03*
X528400Y380500D03*
X528400Y372500D03*
X528400Y364500D03*
X528400Y356500D03*
X528400Y348500D03*
X528400Y340500D03*
X528400Y332500D03*
D18*
X540400Y320500D03*
X548400Y320500D03*
X556400Y320500D03*
X564400Y320500D03*
X572400Y320500D03*
X580400Y320500D03*
X588400Y320500D03*
X596400Y320500D03*
X604400Y320500D03*
X612400Y320500D03*
X620400Y320500D03*
X628400Y320500D03*
D17*
X640400Y332500D03*
X640400Y340500D03*
X640400Y348500D03*
X640400Y356500D03*
X640400Y364500D03*
X640400Y372500D03*
X640400Y380500D03*
X640400Y388500D03*
X640400Y396500D03*
X640400Y404500D03*
X640400Y412500D03*
X640400Y420500D03*
D18*
X628400Y432500D03*
X620400Y432500D03*
X612400Y432500D03*
X604400Y432500D03*
X596400Y432500D03*
X588400Y432500D03*
X580400Y432500D03*
X572400Y432500D03*
X564400Y432500D03*
X556400Y432500D03*
X548400Y432500D03*
X540400Y432500D03*
M02*
